<svg height="553pt" viewBox="-17 -55 553.33379 553" width="553pt" xmlns="http://www.w3.org/2000/svg"><path d="m200.257812 190.160156c-.332031 0-.664062-.019531-.988281-.058594-2.597656-.300781-4.898437-1.773437-6.261719-3.996093l-15.589843-25.328125c-1.523438-2.472656-1.679688-5.550782-.414063-8.164063l45.46875-94.171875c1.394532-2.894531 4.296875-4.761718 7.503906-4.820312 3.472657.023437 6.191407 1.695312 7.6875 4.539062l41.535157 78.578125c1.558593 2.949219 1.25 6.53125-.777344 9.179688l-22.855469 29.71875c-1.675781 2.167969-4.066406 3.523437-7.042968 3.320312-2.75-.09375-5.277344-1.507812-6.800782-3.792969l-9.171875-13.757812-26.269531 26.257812c-1.609375 1.605469-3.777344 2.496094-6.023438 2.496094zm-5.886718-34.34375 7.496094 12.179688 25.984374-25.988282c1.804688-1.796874 4.277344-2.707031 6.863282-2.453124 2.535156.25 4.832031 1.628906 6.25 3.753906l8.339844 12.515625 12.28125-15.960938-31.105469-58.847656zm0 0"/><path d="m91.507812 357.785156c-1.234374 0-2.5-.273437-3.6875-.847656-4.246093-2.046875-6.015624-7.136719-3.96875-11.375l15.75-32.601562c2.050782-4.226563 7.136719-6.011719 11.367188-3.964844 4.242188 2.042968 6.015625 7.136718 3.96875 11.375l-15.746094 32.601562c-1.476562 3.039063-4.515625 4.8125-7.683594 4.8125zm0 0"/><path d="m118.050781 302.8125c-1.238281 0-2.5-.269531-3.6875-.847656-4.234375-2.042969-6.015625-7.136719-3.96875-11.371094l66.609375-137.984375c1.355469-2.804687 4.125-4.644531 7.234375-4.800781 3.035157-.179688 6.058594 1.382812 7.6875 4.039062l9.941407 16.140625 25.980468-25.980469c1.808594-1.804687 4.273438-2.707031 6.863282-2.453124 2.539062.25 4.835937 1.625 6.246093 3.75l8.347657 12.519531 15.609374-20.296875c1.773438-2.296875 4.609376-3.53125 7.480469-3.296875 2.886719.242187 5.449219 1.945312 6.804688 4.507812l11.378906 21.527344c2.203125 4.15625.613281 9.308594-3.542969 11.511719-4.1875 2.195312-9.328125.59375-11.511718-3.550782l-5.183594-9.808593-14.773438 19.214843c-1.671875 2.167969-4.070312 3.523438-7.046875 3.316407-2.746093-.089844-5.273437-1.503907-6.796875-3.785157l-9.175781-13.765624-26.265625 26.265624c-1.847656 1.84375-4.492188 2.710938-7.011719 2.4375-2.597656-.308593-4.898437-1.777343-6.261719-3.996093l-7.429687-12.074219-59.84375 123.964844c-1.46875 3.046875-4.515625 4.816406-7.683594 4.816406zm0 0"/><path d="m35.9375 373.152344c-3.75 0-7.1875-2.5-8.207031-6.292969-1.230469-4.542969 1.449219-9.222656 5.984375-10.453125l474.289062-128.605469c4.542969-1.203125 9.226563 1.457031 10.449219 5.988281 1.226563 4.542969-1.449219 9.222657-5.992187 10.457032l-474.285157 128.609375c-.75.199219-1.496093.296875-2.238281.296875zm0 0"/><path d="m39.671875 440.371094c-3.699219 0-7.109375-2.4375-8.183594-6.179688-1.289062-4.523437 1.332031-9.238281 5.855469-10.527344l235.261719-67.21875c4.484375-1.277343 9.234375 1.3125 10.53125 5.84375 1.285156 4.527344-1.332031 9.238282-5.859375 10.53125l-235.257813 67.21875c-.78125.222657-1.5625.332032-2.347656.332032zm0 0"/><path d="m263.742188 440.371094c-3.679688 0-7.070313-2.394532-8.167969-6.09375-1.339844-4.507813 1.230469-9.25 5.746093-10.589844l239.007813-70.957031c4.515625-1.34375 9.25 1.238281 10.589844 5.742187 1.339843 4.507813-1.234375 9.25-5.746094 10.585938l-239.011719 70.957031c-.808594.238281-1.621094.355469-2.417968.355469zm0 0"/><path d="m88.226562 119.207031c-33.523437 0-60.796874-27.277343-60.796874-60.800781s27.273437-60.800781 60.796874-60.800781c33.53125 0 60.804688 27.277343 60.804688 60.800781s-27.273438 60.800781-60.804688 60.800781zm0-104.566406c-24.132812 0-43.761718 19.632813-43.761718 43.765625s19.628906 43.761719 43.761718 43.761719c24.128907 0 43.769532-19.628907 43.769532-43.761719s-19.640625-43.765625-43.769532-43.765625zm0 0"/><path d="m67.457031 358.214844c-4.707031 0-8.519531-3.816406-8.519531-8.519532v-37.347656c0-4.703125 3.8125-8.515625 8.519531-8.515625s8.515625 3.8125 8.515625 8.515625v37.347656c0 4.703126-3.808594 8.519532-8.515625 8.519532zm0 0"/><path d="m330.96875 149.078125c-.113281 0-.21875 0-.328125-.007813-2.367187-.089843-4.59375-1.164062-6.136719-2.964843l-20.417968-23.820313c-2.25-2.613281-2.691407-6.3125-1.140626-9.390625l54.023438-106.878906c1.429688-2.824219 4.300781-4.621094 7.460938-4.675781 2.929687-.167969 6.089843 1.648437 7.609374 4.425781l54.109376 98.742187c1.726562 3.140626 1.296874 7.015626-1.058594 9.703126l-27.964844 31.957031c-1.550781 1.777343-3.773438 2.828125-6.125 2.90625-2.390625.042969-4.648438-.828125-6.308594-2.488281l-23.847656-23.855469-23.855469 23.855469c-1.59375 1.597656-3.769531 2.492187-6.019531 2.492187zm29.875-46.910156c2.261719 0 4.425781.902343 6.023438 2.496093l23.429687 23.4375 18.050781-20.625-43.46875-79.339843-44.164062 87.371093 10.734375 12.527344 23.375-23.371094c1.59375-1.59375 3.757812-2.496093 6.019531-2.496093zm0 0"/><path d="m209.484375 325.179688c-1.292969 0-2.609375-.296876-3.835937-.917969-4.199219-2.121094-5.882813-7.246094-3.761719-11.449219l101.058593-199.917969c1.285157-2.539062 3.746094-4.265625 6.578126-4.609375 2.816406-.335937 5.640624.746094 7.484374 2.910156l14.441407 16.835938 23.371093-23.371094c1.597657-1.59375 3.761719-2.496094 6.023438-2.496094s4.425781.902344 6.023438 2.496094l23.429687 23.4375 21.964844-25.109375c1.839843-2.089843 4.589843-3.132812 7.339843-2.855469 2.769532.304688 5.207032 1.933594 6.546876 4.375l71.488281 130.46875c2.261719 4.125.75 9.296876-3.378907 11.5625-4.121093 2.257813-9.304687.746094-11.558593-3.375l-65.636719-119.785156-19.9375 22.789063c-1.554688 1.777343-3.777344 2.824219-6.132812 2.90625-2.386719.039062-4.640626-.828125-6.304688-2.496094l-23.84375-23.847656-23.855469 23.847656c-1.683593 1.675781-4.042969 2.613281-6.347656 2.492187-2.367187-.089843-4.601563-1.164062-6.140625-2.96875l-12.109375-14.128906-95.296875 188.527344c-1.496094 2.96875-4.5 4.679688-7.609375 4.679688zm0 0"/><path d="m48.699219 290.902344c-.292969 0-.589844-.015625-.882813-.042969-2.535156-.265625-4.824218-1.652344-6.230468-3.785156l-11.0625-16.777344c-1.835938-2.785156-1.878907-6.386719-.105469-9.207031l30.039062-47.945313c1.570313-2.5 4.335938-4 7.261719-3.996093 2.945312.011718 5.675781 1.550781 7.21875 4.058593l23.703125 38.621094c1.8125 2.953125 1.652344 6.707031-.40625 9.5l-16.515625 22.488281c-1.765625 2.390625-4.695312 3.691406-7.605469 3.4375-2.964843-.257812-5.578125-2.046875-6.890625-4.710937l-2.164062-4.375-10.367188 10.265625c-1.601562 1.589844-3.765625 2.46875-5.992187 2.46875zm-.941407-25.40625 2.328126 3.523437 11.382812-11.269531c1.945312-1.925781 4.683594-2.828125 7.402344-2.355469 2.703125.453125 5.015625 2.175781 6.234375 4.632813l1.1875 2.40625 4.835937-6.578125-13.519531-22.03125zm0 0"/><path d="m125.949219 321.144531c-.019531 0-.027344 0-.046875 0l-117.425782-.558593c-3.085937-.019532-5.933593-1.699219-7.417968-4.414063-1.492188-2.703125-1.398438-6.007813.238281-8.625l29.121094-46.464844c1.539062-2.449219 4.222656-3.957031 7.121093-3.988281h.101563c2.859375 0 5.53125 1.429688 7.109375 3.828125l5.34375 8.101563 11.375-11.273438c1.949219-1.925781 4.683594-2.820312 7.40625-2.347656 2.699219.453125 5.011719 2.171875 6.230469 4.625l1.1875 2.410156 8.226562-11.195312c1.671875-2.285157 4.167969-3.601563 7.21875-3.46875 2.832031.121093 5.421875 1.640624 6.90625 4.054687l34.570313 56.339844c1.613281 2.632812 1.675781 5.941406.15625 8.632812-1.511719 2.679688-4.347656 4.34375-7.421875 4.34375zm-102.085938-17.523437 86.820313.414062-19.9375-32.503906-9.027344 12.277344c-1.761719 2.398437-4.6875 3.699218-7.597656 3.445312-2.972656-.257812-5.582032-2.046875-6.898438-4.710937l-2.164062-4.375-10.359375 10.265625c-1.820313 1.800781-4.367188 2.6875-6.882813 2.425781-2.535156-.265625-4.824218-1.652344-6.230468-3.789063l-3.765626-5.710937zm0 0"/></svg>