<svg xmlns="http://www.w3.org/2000/svg" width="483.32" height="480" viewBox="0 0 483.32 480">
  <g id="tienda" transform="translate(0 -1.66)">
    <g id="Grupo_60" data-name="Grupo 60">
      <g id="Grupo_59" data-name="Grupo 59">
        <rect id="Rect치ngulo_11" data-name="Rect치ngulo 11" width="16" height="16" transform="translate(341.664 465.66)" fill="#fff"/>
      </g>
    </g>
    <g id="Grupo_62" data-name="Grupo 62">
      <g id="Grupo_61" data-name="Grupo 61">
        <rect id="Rect치ngulo_12" data-name="Rect치ngulo 12" width="16" height="118.12" transform="translate(286.638 349.48) rotate(-28.3)" fill="#fff"/>
      </g>
    </g>
    <g id="Grupo_64" data-name="Grupo 64">
      <g id="Grupo_63" data-name="Grupo 63">
        <path id="Trazado_51" data-name="Trazado 51" d="M96.008,231.316,107.32,220,61.664,174.348V148.972l34.344,34.344L107.32,172l-48-48-.056.056a7.792,7.792,0,0,0-11.016-.294c-.085.08-.167.162-.248.246l-48,48,11.312,11.312,34.352-34.352v25.376L.008,220,11.32,231.316l34.344-34.344v25.376L.008,268,11.32,279.316l34.344-34.344v25.376L.008,316,11.32,327.316l34.344-34.344V481.66h16V292.972l34.344,34.344L107.32,316,61.664,270.348V244.972l34.344,34.344L107.32,268,61.664,222.348V196.972Z" fill="#fff"/>
      </g>
    </g>
    <g id="Grupo_66" data-name="Grupo 66">
      <g id="Grupo_65" data-name="Grupo 65">
        <path id="Trazado_52" data-name="Trazado 52" d="M472.008,263.316,483.32,252l-45.656-45.656V180.972l34.344,34.344L483.32,204l-48-48-.056.056a7.792,7.792,0,0,0-11.016-.294c-.085.08-.167.162-.248.246l-48,48,11.312,11.312,34.352-34.352v25.376L376.008,252l11.312,11.312,34.344-34.344v25.376L376.008,300l11.312,11.312,34.344-34.344V353.66l-16.8-35.416a8,8,0,0,0-7.2-4.584h-104V252.972l34.344,34.344L339.32,276l-45.656-45.656V204.972l34.344,34.344L339.32,228l-45.656-45.656V156.972l34.344,34.344L339.32,180l-45.656-45.656V108.972l34.344,34.344L339.32,132l-48-48-.056.056a7.792,7.792,0,0,0-11.016-.294c-.085.08-.167.162-.248.246l-48,48,11.312,11.312,34.352-34.352v25.376L232.008,180l11.312,11.312,34.344-34.344v25.376L232.008,228l11.312,11.312,34.344-34.344v25.376L232.008,276l11.312,11.312,34.344-34.344V313.66h-112a7.894,7.894,0,0,0-5.888,2.688,6.911,6.911,0,0,0-1.192,1.6l-80,152a8,8,0,0,0,7.08,11.712h240v-16h-75.2l-71.552-136H392.6l64.424,136h-83.36v16h96a8,8,0,0,0,7.2-11.424l-39.2-82.808V276.972l34.344,34.344L483.32,300l-45.656-45.656V228.972ZM157.664,465.66H98.912l58.752-111.624Zm74.752,0H173.664V354.036Z" fill="#fff"/>
      </g>
    </g>
    <g id="Grupo_68" data-name="Grupo 68">
      <g id="Grupo_67" data-name="Grupo 67">
        <path id="Trazado_53" data-name="Trazado 53" d="M153.664,1.66a8,8,0,0,0-5.656,13.656,46.62,46.62,0,0,1,15.056,28.568,24.608,24.608,0,0,1-27.2,27.2l.024-.024A46.62,46.62,0,0,1,107.32,56,8,8,0,0,0,93.664,61.66a60,60,0,1,0,60-60Zm39.623,79.178a44,44,0,0,1-79.19.022,52.713,52.713,0,0,0,20.592,6.12,41.207,41.207,0,0,0,32.632-11.664,44.512,44.512,0,0,0,5.544-53.256A44,44,0,0,1,193.287,80.838Z" fill="#fff"/>
      </g>
    </g>
  </g>
</svg>
